<mxfile host="app.diagrams.net" modified="2021-10-19T11:24:12.340Z" agent="5.0 (Windows NT 10.0; WOW64) AppleWebKit/537.36 (KHTML, like Gecko) Chrome/94.0.4606.81 Safari/537.36" etag="99mlQN-mb0tfEnFLYG3m" version="15.5.5" type="github">
  <diagram name="Page-1" id="5f0bae14-7c28-e335-631c-24af17079c00">
    <mxGraphModel dx="1913" dy="454" grid="1" gridSize="10" guides="1" tooltips="1" connect="1" arrows="1" fold="1" page="1" pageScale="1" pageWidth="1100" pageHeight="850" background="none" math="0" shadow="0">
      <root>
        <mxCell id="0" />
        <mxCell id="1" parent="0" />
        <mxCell id="aNObFJ_koJKjJoRsx-cJ-1" value="" style="html=1;dropTarget=0;" vertex="1" parent="1">
          <mxGeometry x="260" y="10" width="740" height="700" as="geometry" />
        </mxCell>
        <mxCell id="aNObFJ_koJKjJoRsx-cJ-2" value="" style="shape=module;jettyWidth=8;jettyHeight=4;" vertex="1" parent="aNObFJ_koJKjJoRsx-cJ-1">
          <mxGeometry x="1" width="20" height="20" relative="1" as="geometry">
            <mxPoint x="-27" y="7" as="offset" />
          </mxGeometry>
        </mxCell>
        <mxCell id="aNObFJ_koJKjJoRsx-cJ-102" style="edgeStyle=none;rounded=0;orthogonalLoop=1;jettySize=auto;html=1;entryX=1;entryY=0.5;entryDx=0;entryDy=0;fontSize=14;endArrow=none;endFill=0;exitX=0;exitY=0.5;exitDx=0;exitDy=0;" edge="1" parent="1" source="aNObFJ_koJKjJoRsx-cJ-107" target="aNObFJ_koJKjJoRsx-cJ-55">
          <mxGeometry relative="1" as="geometry">
            <mxPoint x="395" y="289.9999999999999" as="sourcePoint" />
          </mxGeometry>
        </mxCell>
        <mxCell id="aNObFJ_koJKjJoRsx-cJ-53" style="edgeStyle=none;rounded=0;orthogonalLoop=1;jettySize=auto;html=1;endArrow=open;endFill=0;dashed=1;" edge="1" parent="1" source="aNObFJ_koJKjJoRsx-cJ-11" target="aNObFJ_koJKjJoRsx-cJ-49">
          <mxGeometry relative="1" as="geometry" />
        </mxCell>
        <mxCell id="aNObFJ_koJKjJoRsx-cJ-100" style="edgeStyle=none;rounded=0;orthogonalLoop=1;jettySize=auto;html=1;entryX=1;entryY=0.5;entryDx=0;entryDy=0;fontSize=14;endArrow=none;endFill=0;" edge="1" parent="1" source="aNObFJ_koJKjJoRsx-cJ-11" target="aNObFJ_koJKjJoRsx-cJ-47">
          <mxGeometry relative="1" as="geometry" />
        </mxCell>
        <mxCell id="aNObFJ_koJKjJoRsx-cJ-101" style="edgeStyle=none;rounded=0;orthogonalLoop=1;jettySize=auto;html=1;entryX=1;entryY=0.5;entryDx=0;entryDy=0;fontSize=14;endArrow=none;endFill=0;exitX=0;exitY=0.5;exitDx=0;exitDy=0;" edge="1" parent="1" source="aNObFJ_koJKjJoRsx-cJ-11" target="aNObFJ_koJKjJoRsx-cJ-54">
          <mxGeometry relative="1" as="geometry" />
        </mxCell>
        <mxCell id="aNObFJ_koJKjJoRsx-cJ-182" style="edgeStyle=none;rounded=0;orthogonalLoop=1;jettySize=auto;html=1;fontSize=14;endArrow=none;endFill=0;exitX=0.871;exitY=0.982;exitDx=0;exitDy=0;exitPerimeter=0;" edge="1" parent="1" source="aNObFJ_koJKjJoRsx-cJ-11">
          <mxGeometry relative="1" as="geometry">
            <mxPoint x="690" y="180" as="targetPoint" />
            <Array as="points">
              <mxPoint x="530" y="130" />
              <mxPoint x="690" y="130" />
            </Array>
          </mxGeometry>
        </mxCell>
        <mxCell id="aNObFJ_koJKjJoRsx-cJ-11" value="&lt;b&gt;Felhasználói&lt;br&gt;adatkezelő&lt;/b&gt;" style="html=1;dropTarget=0;" vertex="1" parent="1">
          <mxGeometry x="390" y="35" width="160" height="55" as="geometry" />
        </mxCell>
        <mxCell id="aNObFJ_koJKjJoRsx-cJ-12" value="" style="shape=module;jettyWidth=8;jettyHeight=4;" vertex="1" parent="aNObFJ_koJKjJoRsx-cJ-11">
          <mxGeometry x="1" width="20" height="20" relative="1" as="geometry">
            <mxPoint x="-27" y="7" as="offset" />
          </mxGeometry>
        </mxCell>
        <mxCell id="aNObFJ_koJKjJoRsx-cJ-18" value="" style="rounded=0;orthogonalLoop=1;jettySize=auto;html=1;endArrow=none;endFill=0;sketch=0;sourcePerimeterSpacing=0;targetPerimeterSpacing=0;exitX=0.222;exitY=0.992;exitDx=0;exitDy=0;exitPerimeter=0;" edge="1" parent="1">
          <mxGeometry relative="1" as="geometry">
            <mxPoint x="430.52" y="89.55999999999995" as="sourcePoint" />
            <mxPoint x="430.0234739304801" y="170.0000528077594" as="targetPoint" />
          </mxGeometry>
        </mxCell>
        <mxCell id="aNObFJ_koJKjJoRsx-cJ-19" value="" style="rounded=0;orthogonalLoop=1;jettySize=auto;html=1;endArrow=halfCircle;endFill=0;endSize=6;strokeWidth=1;sketch=0;exitX=0.219;exitY=-0.008;exitDx=0;exitDy=0;exitPerimeter=0;" edge="1" parent="1">
          <mxGeometry relative="1" as="geometry">
            <mxPoint x="430.03999999999996" y="339.55999999999995" as="sourcePoint" />
            <mxPoint x="430" y="175" as="targetPoint" />
            <Array as="points">
              <mxPoint x="430" y="175" />
            </Array>
          </mxGeometry>
        </mxCell>
        <mxCell id="aNObFJ_koJKjJoRsx-cJ-20" value="" style="ellipse;whiteSpace=wrap;html=1;align=center;aspect=fixed;resizable=0;points=[];outlineConnect=0;sketch=0;" vertex="1" parent="1">
          <mxGeometry x="425" y="170" width="10" height="10" as="geometry" />
        </mxCell>
        <mxCell id="aNObFJ_koJKjJoRsx-cJ-38" value="" style="edgeStyle=none;rounded=0;orthogonalLoop=1;jettySize=auto;html=1;endArrow=none;endFill=0;exitX=0;exitY=0.5;exitDx=0;exitDy=0;" edge="1" parent="1" source="aNObFJ_koJKjJoRsx-cJ-47" target="aNObFJ_koJKjJoRsx-cJ-37">
          <mxGeometry relative="1" as="geometry">
            <mxPoint x="190" y="70" as="sourcePoint" />
          </mxGeometry>
        </mxCell>
        <mxCell id="aNObFJ_koJKjJoRsx-cJ-37" value="" style="ellipse;whiteSpace=wrap;html=1;" vertex="1" parent="1">
          <mxGeometry x="197" y="52.5" width="20" height="20" as="geometry" />
        </mxCell>
        <mxCell id="aNObFJ_koJKjJoRsx-cJ-39" value="&lt;b&gt;&lt;font style=&quot;font-size: 14px&quot;&gt;Regisztráció&lt;/font&gt;&lt;/b&gt;" style="text;html=1;align=center;verticalAlign=middle;resizable=0;points=[];autosize=1;strokeColor=none;fillColor=none;" vertex="1" parent="1">
          <mxGeometry x="87" y="52.5" width="100" height="20" as="geometry" />
        </mxCell>
        <mxCell id="aNObFJ_koJKjJoRsx-cJ-47" value="" style="whiteSpace=wrap;html=1;" vertex="1" parent="1">
          <mxGeometry x="240" y="42.5" width="40" height="40" as="geometry" />
        </mxCell>
        <mxCell id="aNObFJ_koJKjJoRsx-cJ-48" value="" style="whiteSpace=wrap;html=1;" vertex="1" parent="1">
          <mxGeometry x="240" y="460" width="40" height="40" as="geometry" />
        </mxCell>
        <mxCell id="aNObFJ_koJKjJoRsx-cJ-147" style="edgeStyle=none;rounded=0;orthogonalLoop=1;jettySize=auto;html=1;fontSize=14;endArrow=none;endFill=0;" edge="1" parent="1">
          <mxGeometry relative="1" as="geometry">
            <mxPoint x="690" y="180" as="targetPoint" />
            <mxPoint x="690" y="180" as="sourcePoint" />
          </mxGeometry>
        </mxCell>
        <mxCell id="aNObFJ_koJKjJoRsx-cJ-49" value="&lt;b&gt;Felhasználói&lt;br&gt;adatbázis&lt;/b&gt;" style="html=1;dropTarget=0;" vertex="1" parent="1">
          <mxGeometry x="610" y="35" width="160" height="55" as="geometry" />
        </mxCell>
        <mxCell id="aNObFJ_koJKjJoRsx-cJ-50" value="" style="shape=module;jettyWidth=8;jettyHeight=4;" vertex="1" parent="aNObFJ_koJKjJoRsx-cJ-49">
          <mxGeometry x="1" width="20" height="20" relative="1" as="geometry">
            <mxPoint x="-27" y="7" as="offset" />
          </mxGeometry>
        </mxCell>
        <mxCell id="aNObFJ_koJKjJoRsx-cJ-52" style="edgeStyle=none;rounded=0;orthogonalLoop=1;jettySize=auto;html=1;entryX=0;entryY=0.5;entryDx=0;entryDy=0;endArrow=none;endFill=0;" edge="1" parent="1" source="aNObFJ_koJKjJoRsx-cJ-49" target="aNObFJ_koJKjJoRsx-cJ-49">
          <mxGeometry relative="1" as="geometry" />
        </mxCell>
        <mxCell id="aNObFJ_koJKjJoRsx-cJ-73" style="edgeStyle=none;rounded=0;orthogonalLoop=1;jettySize=auto;html=1;endArrow=none;endFill=0;" edge="1" parent="1" source="aNObFJ_koJKjJoRsx-cJ-54" target="aNObFJ_koJKjJoRsx-cJ-63">
          <mxGeometry relative="1" as="geometry" />
        </mxCell>
        <mxCell id="aNObFJ_koJKjJoRsx-cJ-54" value="" style="whiteSpace=wrap;html=1;" vertex="1" parent="1">
          <mxGeometry x="240" y="100" width="40" height="40" as="geometry" />
        </mxCell>
        <mxCell id="aNObFJ_koJKjJoRsx-cJ-55" value="" style="whiteSpace=wrap;html=1;" vertex="1" parent="1">
          <mxGeometry x="240" y="160" width="40" height="40" as="geometry" />
        </mxCell>
        <mxCell id="aNObFJ_koJKjJoRsx-cJ-103" style="edgeStyle=none;rounded=0;orthogonalLoop=1;jettySize=auto;html=1;entryX=0;entryY=0.5;entryDx=0;entryDy=0;fontSize=14;endArrow=none;endFill=0;exitX=1;exitY=0.5;exitDx=0;exitDy=0;" edge="1" parent="1" source="aNObFJ_koJKjJoRsx-cJ-56" target="aNObFJ_koJKjJoRsx-cJ-107">
          <mxGeometry relative="1" as="geometry">
            <mxPoint x="395" y="289.9999999999999" as="targetPoint" />
          </mxGeometry>
        </mxCell>
        <mxCell id="aNObFJ_koJKjJoRsx-cJ-56" value="" style="whiteSpace=wrap;html=1;" vertex="1" parent="1">
          <mxGeometry x="240" y="220" width="40" height="40" as="geometry" />
        </mxCell>
        <mxCell id="aNObFJ_koJKjJoRsx-cJ-104" style="edgeStyle=none;rounded=0;orthogonalLoop=1;jettySize=auto;html=1;entryX=0;entryY=0.5;entryDx=0;entryDy=0;fontSize=14;endArrow=none;endFill=0;exitX=1;exitY=0.5;exitDx=0;exitDy=0;" edge="1" parent="1" source="aNObFJ_koJKjJoRsx-cJ-57" target="aNObFJ_koJKjJoRsx-cJ-107">
          <mxGeometry relative="1" as="geometry">
            <mxPoint x="395" y="289.9999999999999" as="targetPoint" />
          </mxGeometry>
        </mxCell>
        <mxCell id="aNObFJ_koJKjJoRsx-cJ-57" value="" style="whiteSpace=wrap;html=1;" vertex="1" parent="1">
          <mxGeometry x="240" y="280" width="40" height="40" as="geometry" />
        </mxCell>
        <mxCell id="aNObFJ_koJKjJoRsx-cJ-105" style="edgeStyle=none;rounded=0;orthogonalLoop=1;jettySize=auto;html=1;entryX=0;entryY=0.5;entryDx=0;entryDy=0;fontSize=14;endArrow=none;endFill=0;exitX=1;exitY=0.5;exitDx=0;exitDy=0;" edge="1" parent="1" source="aNObFJ_koJKjJoRsx-cJ-58" target="aNObFJ_koJKjJoRsx-cJ-107">
          <mxGeometry relative="1" as="geometry">
            <mxPoint x="395" y="289.9999999999999" as="targetPoint" />
          </mxGeometry>
        </mxCell>
        <mxCell id="aNObFJ_koJKjJoRsx-cJ-58" value="" style="whiteSpace=wrap;html=1;" vertex="1" parent="1">
          <mxGeometry x="240" y="340" width="40" height="40" as="geometry" />
        </mxCell>
        <mxCell id="aNObFJ_koJKjJoRsx-cJ-106" style="edgeStyle=none;rounded=0;orthogonalLoop=1;jettySize=auto;html=1;entryX=0;entryY=0.5;entryDx=0;entryDy=0;fontSize=14;endArrow=none;endFill=0;exitX=1;exitY=0.5;exitDx=0;exitDy=0;" edge="1" parent="1" source="aNObFJ_koJKjJoRsx-cJ-59" target="aNObFJ_koJKjJoRsx-cJ-107">
          <mxGeometry relative="1" as="geometry">
            <mxPoint x="395" y="289.9999999999999" as="targetPoint" />
          </mxGeometry>
        </mxCell>
        <mxCell id="aNObFJ_koJKjJoRsx-cJ-59" value="" style="whiteSpace=wrap;html=1;" vertex="1" parent="1">
          <mxGeometry x="240" y="400" width="40" height="40" as="geometry" />
        </mxCell>
        <mxCell id="aNObFJ_koJKjJoRsx-cJ-60" value="" style="whiteSpace=wrap;html=1;" vertex="1" parent="1">
          <mxGeometry x="240" y="520" width="40" height="40" as="geometry" />
        </mxCell>
        <mxCell id="aNObFJ_koJKjJoRsx-cJ-61" value="" style="whiteSpace=wrap;html=1;" vertex="1" parent="1">
          <mxGeometry x="240" y="580" width="40" height="40" as="geometry" />
        </mxCell>
        <mxCell id="aNObFJ_koJKjJoRsx-cJ-62" value="" style="whiteSpace=wrap;html=1;" vertex="1" parent="1">
          <mxGeometry x="240" y="640" width="40" height="40" as="geometry" />
        </mxCell>
        <mxCell id="aNObFJ_koJKjJoRsx-cJ-63" value="" style="ellipse;whiteSpace=wrap;html=1;" vertex="1" parent="1">
          <mxGeometry x="197" y="110" width="20" height="20" as="geometry" />
        </mxCell>
        <mxCell id="aNObFJ_koJKjJoRsx-cJ-74" style="edgeStyle=none;rounded=0;orthogonalLoop=1;jettySize=auto;html=1;entryX=0;entryY=0.5;entryDx=0;entryDy=0;endArrow=none;endFill=0;" edge="1" parent="1" source="aNObFJ_koJKjJoRsx-cJ-64" target="aNObFJ_koJKjJoRsx-cJ-55">
          <mxGeometry relative="1" as="geometry" />
        </mxCell>
        <mxCell id="aNObFJ_koJKjJoRsx-cJ-64" value="" style="ellipse;whiteSpace=wrap;html=1;" vertex="1" parent="1">
          <mxGeometry x="197" y="170" width="20" height="20" as="geometry" />
        </mxCell>
        <mxCell id="aNObFJ_koJKjJoRsx-cJ-75" style="edgeStyle=none;rounded=0;orthogonalLoop=1;jettySize=auto;html=1;entryX=0;entryY=0.5;entryDx=0;entryDy=0;endArrow=none;endFill=0;" edge="1" parent="1" source="aNObFJ_koJKjJoRsx-cJ-65" target="aNObFJ_koJKjJoRsx-cJ-56">
          <mxGeometry relative="1" as="geometry" />
        </mxCell>
        <mxCell id="aNObFJ_koJKjJoRsx-cJ-65" value="" style="ellipse;whiteSpace=wrap;html=1;" vertex="1" parent="1">
          <mxGeometry x="197" y="230" width="20" height="20" as="geometry" />
        </mxCell>
        <mxCell id="aNObFJ_koJKjJoRsx-cJ-76" style="edgeStyle=none;rounded=0;orthogonalLoop=1;jettySize=auto;html=1;entryX=0;entryY=0.5;entryDx=0;entryDy=0;endArrow=none;endFill=0;" edge="1" parent="1" source="aNObFJ_koJKjJoRsx-cJ-66" target="aNObFJ_koJKjJoRsx-cJ-57">
          <mxGeometry relative="1" as="geometry" />
        </mxCell>
        <mxCell id="aNObFJ_koJKjJoRsx-cJ-66" value="" style="ellipse;whiteSpace=wrap;html=1;" vertex="1" parent="1">
          <mxGeometry x="197" y="290" width="20" height="20" as="geometry" />
        </mxCell>
        <mxCell id="aNObFJ_koJKjJoRsx-cJ-77" style="edgeStyle=none;rounded=0;orthogonalLoop=1;jettySize=auto;html=1;entryX=0;entryY=0.5;entryDx=0;entryDy=0;endArrow=none;endFill=0;" edge="1" parent="1" source="aNObFJ_koJKjJoRsx-cJ-67" target="aNObFJ_koJKjJoRsx-cJ-58">
          <mxGeometry relative="1" as="geometry" />
        </mxCell>
        <mxCell id="aNObFJ_koJKjJoRsx-cJ-67" value="" style="ellipse;whiteSpace=wrap;html=1;" vertex="1" parent="1">
          <mxGeometry x="197" y="350" width="20" height="20" as="geometry" />
        </mxCell>
        <mxCell id="aNObFJ_koJKjJoRsx-cJ-78" style="edgeStyle=none;rounded=0;orthogonalLoop=1;jettySize=auto;html=1;entryX=0;entryY=0.5;entryDx=0;entryDy=0;endArrow=none;endFill=0;" edge="1" parent="1" source="aNObFJ_koJKjJoRsx-cJ-68" target="aNObFJ_koJKjJoRsx-cJ-59">
          <mxGeometry relative="1" as="geometry" />
        </mxCell>
        <mxCell id="aNObFJ_koJKjJoRsx-cJ-68" value="" style="ellipse;whiteSpace=wrap;html=1;" vertex="1" parent="1">
          <mxGeometry x="197" y="410" width="20" height="20" as="geometry" />
        </mxCell>
        <mxCell id="aNObFJ_koJKjJoRsx-cJ-79" style="edgeStyle=none;rounded=0;orthogonalLoop=1;jettySize=auto;html=1;entryX=0;entryY=0.5;entryDx=0;entryDy=0;endArrow=none;endFill=0;" edge="1" parent="1" source="aNObFJ_koJKjJoRsx-cJ-69" target="aNObFJ_koJKjJoRsx-cJ-48">
          <mxGeometry relative="1" as="geometry" />
        </mxCell>
        <mxCell id="aNObFJ_koJKjJoRsx-cJ-69" value="" style="ellipse;whiteSpace=wrap;html=1;" vertex="1" parent="1">
          <mxGeometry x="197" y="470" width="20" height="20" as="geometry" />
        </mxCell>
        <mxCell id="aNObFJ_koJKjJoRsx-cJ-81" style="edgeStyle=none;rounded=0;orthogonalLoop=1;jettySize=auto;html=1;entryX=0;entryY=0.5;entryDx=0;entryDy=0;endArrow=none;endFill=0;" edge="1" parent="1" source="aNObFJ_koJKjJoRsx-cJ-70" target="aNObFJ_koJKjJoRsx-cJ-60">
          <mxGeometry relative="1" as="geometry" />
        </mxCell>
        <mxCell id="aNObFJ_koJKjJoRsx-cJ-70" value="" style="ellipse;whiteSpace=wrap;html=1;" vertex="1" parent="1">
          <mxGeometry x="197" y="530" width="20" height="20" as="geometry" />
        </mxCell>
        <mxCell id="aNObFJ_koJKjJoRsx-cJ-82" style="edgeStyle=none;rounded=0;orthogonalLoop=1;jettySize=auto;html=1;entryX=0;entryY=0.5;entryDx=0;entryDy=0;endArrow=none;endFill=0;" edge="1" parent="1" source="aNObFJ_koJKjJoRsx-cJ-71" target="aNObFJ_koJKjJoRsx-cJ-61">
          <mxGeometry relative="1" as="geometry" />
        </mxCell>
        <mxCell id="aNObFJ_koJKjJoRsx-cJ-71" value="" style="ellipse;whiteSpace=wrap;html=1;" vertex="1" parent="1">
          <mxGeometry x="197" y="590" width="20" height="20" as="geometry" />
        </mxCell>
        <mxCell id="aNObFJ_koJKjJoRsx-cJ-83" style="edgeStyle=none;rounded=0;orthogonalLoop=1;jettySize=auto;html=1;entryX=0;entryY=0.5;entryDx=0;entryDy=0;endArrow=none;endFill=0;" edge="1" parent="1" source="aNObFJ_koJKjJoRsx-cJ-72" target="aNObFJ_koJKjJoRsx-cJ-62">
          <mxGeometry relative="1" as="geometry" />
        </mxCell>
        <mxCell id="aNObFJ_koJKjJoRsx-cJ-72" value="" style="ellipse;whiteSpace=wrap;html=1;" vertex="1" parent="1">
          <mxGeometry x="197" y="650" width="20" height="20" as="geometry" />
        </mxCell>
        <mxCell id="aNObFJ_koJKjJoRsx-cJ-125" style="edgeStyle=none;rounded=0;orthogonalLoop=1;jettySize=auto;html=1;entryX=0.5;entryY=1;entryDx=0;entryDy=0;dashed=1;fontSize=14;endArrow=open;endFill=0;" edge="1" parent="1" source="aNObFJ_koJKjJoRsx-cJ-84" target="aNObFJ_koJKjJoRsx-cJ-88">
          <mxGeometry relative="1" as="geometry" />
        </mxCell>
        <mxCell id="aNObFJ_koJKjJoRsx-cJ-185" style="edgeStyle=none;rounded=0;orthogonalLoop=1;jettySize=auto;html=1;entryX=0;entryY=0.5;entryDx=0;entryDy=0;fontSize=14;endArrow=open;endFill=0;dashed=1;" edge="1" parent="1" source="aNObFJ_koJKjJoRsx-cJ-84" target="aNObFJ_koJKjJoRsx-cJ-183">
          <mxGeometry relative="1" as="geometry" />
        </mxCell>
        <mxCell id="aNObFJ_koJKjJoRsx-cJ-84" value="&lt;b&gt;Napló&lt;br&gt;adatkezelő&lt;/b&gt;" style="html=1;dropTarget=0;" vertex="1" parent="1">
          <mxGeometry x="800" y="152.5" width="160" height="55" as="geometry" />
        </mxCell>
        <mxCell id="aNObFJ_koJKjJoRsx-cJ-85" value="" style="shape=module;jettyWidth=8;jettyHeight=4;" vertex="1" parent="aNObFJ_koJKjJoRsx-cJ-84">
          <mxGeometry x="1" width="20" height="20" relative="1" as="geometry">
            <mxPoint x="-27" y="7" as="offset" />
          </mxGeometry>
        </mxCell>
        <mxCell id="aNObFJ_koJKjJoRsx-cJ-88" value="&lt;b&gt;Napló&lt;br&gt;adatbázis&lt;/b&gt;" style="html=1;dropTarget=0;" vertex="1" parent="1">
          <mxGeometry x="800" y="35" width="160" height="55" as="geometry" />
        </mxCell>
        <mxCell id="aNObFJ_koJKjJoRsx-cJ-89" value="" style="shape=module;jettyWidth=8;jettyHeight=4;" vertex="1" parent="aNObFJ_koJKjJoRsx-cJ-88">
          <mxGeometry x="1" width="20" height="20" relative="1" as="geometry">
            <mxPoint x="-27" y="7" as="offset" />
          </mxGeometry>
        </mxCell>
        <mxCell id="aNObFJ_koJKjJoRsx-cJ-90" value="&lt;b&gt;&lt;font style=&quot;font-size: 14px&quot;&gt;Bejelentkezés&lt;/font&gt;&lt;/b&gt;" style="text;html=1;align=center;verticalAlign=middle;resizable=0;points=[];autosize=1;strokeColor=none;fillColor=none;" vertex="1" parent="1">
          <mxGeometry x="77" y="110" width="110" height="20" as="geometry" />
        </mxCell>
        <mxCell id="aNObFJ_koJKjJoRsx-cJ-91" value="&lt;b&gt;&lt;font style=&quot;font-size: 14px&quot;&gt;CAFF böngészés&lt;/font&gt;&lt;/b&gt;" style="text;html=1;align=center;verticalAlign=middle;resizable=0;points=[];autosize=1;strokeColor=none;fillColor=none;" vertex="1" parent="1">
          <mxGeometry x="57" y="170" width="130" height="20" as="geometry" />
        </mxCell>
        <mxCell id="aNObFJ_koJKjJoRsx-cJ-92" value="&lt;b&gt;&lt;font style=&quot;font-size: 14px&quot;&gt;CAFF keresés címke alapján&lt;/font&gt;&lt;/b&gt;" style="text;html=1;align=center;verticalAlign=middle;resizable=0;points=[];autosize=1;strokeColor=none;fillColor=none;" vertex="1" parent="1">
          <mxGeometry x="-13" y="230" width="200" height="20" as="geometry" />
        </mxCell>
        <mxCell id="aNObFJ_koJKjJoRsx-cJ-93" value="&lt;b&gt;&lt;font style=&quot;font-size: 14px&quot;&gt;CAFF feltöltés&lt;/font&gt;&lt;/b&gt;" style="text;html=1;align=center;verticalAlign=middle;resizable=0;points=[];autosize=1;strokeColor=none;fillColor=none;" vertex="1" parent="1">
          <mxGeometry x="77" y="290" width="110" height="20" as="geometry" />
        </mxCell>
        <mxCell id="aNObFJ_koJKjJoRsx-cJ-94" value="&lt;b&gt;&lt;font style=&quot;font-size: 14px&quot;&gt;CAFF letöltés&lt;/font&gt;&lt;/b&gt;" style="text;html=1;align=center;verticalAlign=middle;resizable=0;points=[];autosize=1;strokeColor=none;fillColor=none;" vertex="1" parent="1">
          <mxGeometry x="77" y="350" width="110" height="20" as="geometry" />
        </mxCell>
        <mxCell id="aNObFJ_koJKjJoRsx-cJ-95" value="&lt;b&gt;&lt;font style=&quot;font-size: 14px&quot;&gt;CAFF törlés&lt;/font&gt;&lt;/b&gt;" style="text;html=1;align=center;verticalAlign=middle;resizable=0;points=[];autosize=1;strokeColor=none;fillColor=none;" vertex="1" parent="1">
          <mxGeometry x="97" y="410" width="90" height="20" as="geometry" />
        </mxCell>
        <mxCell id="aNObFJ_koJKjJoRsx-cJ-96" value="&lt;b&gt;&lt;font style=&quot;font-size: 14px&quot;&gt;Címke hozzáadása CAFF-hoz&lt;/font&gt;&lt;/b&gt;" style="text;html=1;align=center;verticalAlign=middle;resizable=0;points=[];autosize=1;strokeColor=none;fillColor=none;" vertex="1" parent="1">
          <mxGeometry x="-23" y="470" width="210" height="20" as="geometry" />
        </mxCell>
        <mxCell id="aNObFJ_koJKjJoRsx-cJ-97" value="&lt;b&gt;&lt;font style=&quot;font-size: 14px&quot;&gt;Címke törlése CAFF-ról&lt;/font&gt;&lt;/b&gt;" style="text;html=1;align=center;verticalAlign=middle;resizable=0;points=[];autosize=1;strokeColor=none;fillColor=none;" vertex="1" parent="1">
          <mxGeometry x="17" y="530" width="170" height="20" as="geometry" />
        </mxCell>
        <mxCell id="aNObFJ_koJKjJoRsx-cJ-98" value="&lt;b&gt;&lt;font style=&quot;font-size: 14px&quot;&gt;Megjegyzés hozzáadása&lt;/font&gt;&lt;/b&gt;" style="text;html=1;align=center;verticalAlign=middle;resizable=0;points=[];autosize=1;strokeColor=none;fillColor=none;" vertex="1" parent="1">
          <mxGeometry x="12" y="590" width="180" height="20" as="geometry" />
        </mxCell>
        <mxCell id="aNObFJ_koJKjJoRsx-cJ-99" value="&lt;b&gt;&lt;font style=&quot;font-size: 14px&quot;&gt;Megjegyzés törlése&lt;/font&gt;&lt;/b&gt;" style="text;html=1;align=center;verticalAlign=middle;resizable=0;points=[];autosize=1;strokeColor=none;fillColor=none;" vertex="1" parent="1">
          <mxGeometry x="47" y="650" width="140" height="20" as="geometry" />
        </mxCell>
        <mxCell id="aNObFJ_koJKjJoRsx-cJ-119" style="edgeStyle=none;rounded=0;orthogonalLoop=1;jettySize=auto;html=1;entryX=1;entryY=0.5;entryDx=0;entryDy=0;fontSize=14;endArrow=none;endFill=0;exitX=0;exitY=0.5;exitDx=0;exitDy=0;" edge="1" parent="1" source="aNObFJ_koJKjJoRsx-cJ-107" target="aNObFJ_koJKjJoRsx-cJ-48">
          <mxGeometry relative="1" as="geometry" />
        </mxCell>
        <mxCell id="aNObFJ_koJKjJoRsx-cJ-120" style="edgeStyle=none;rounded=0;orthogonalLoop=1;jettySize=auto;html=1;entryX=1;entryY=0.5;entryDx=0;entryDy=0;fontSize=14;endArrow=none;endFill=0;exitX=0;exitY=0.5;exitDx=0;exitDy=0;" edge="1" parent="1" source="aNObFJ_koJKjJoRsx-cJ-107" target="aNObFJ_koJKjJoRsx-cJ-60">
          <mxGeometry relative="1" as="geometry" />
        </mxCell>
        <mxCell id="aNObFJ_koJKjJoRsx-cJ-124" style="edgeStyle=none;rounded=0;orthogonalLoop=1;jettySize=auto;html=1;entryX=0;entryY=0.5;entryDx=0;entryDy=0;dashed=1;fontSize=14;endArrow=open;endFill=0;" edge="1" parent="1" source="aNObFJ_koJKjJoRsx-cJ-107" target="aNObFJ_koJKjJoRsx-cJ-109">
          <mxGeometry relative="1" as="geometry" />
        </mxCell>
        <mxCell id="aNObFJ_koJKjJoRsx-cJ-107" value="&lt;b&gt;CAFF&lt;br&gt;fájlkezelő&lt;/b&gt;" style="html=1;dropTarget=0;" vertex="1" parent="1">
          <mxGeometry x="390" y="340" width="160" height="55" as="geometry" />
        </mxCell>
        <mxCell id="aNObFJ_koJKjJoRsx-cJ-108" value="" style="shape=module;jettyWidth=8;jettyHeight=4;" vertex="1" parent="aNObFJ_koJKjJoRsx-cJ-107">
          <mxGeometry x="1" width="20" height="20" relative="1" as="geometry">
            <mxPoint x="-27" y="7" as="offset" />
          </mxGeometry>
        </mxCell>
        <mxCell id="aNObFJ_koJKjJoRsx-cJ-109" value="&lt;b&gt;CAFF&lt;br&gt;adatbázis&lt;/b&gt;" style="html=1;dropTarget=0;" vertex="1" parent="1">
          <mxGeometry x="610" y="337.5" width="160" height="55" as="geometry" />
        </mxCell>
        <mxCell id="aNObFJ_koJKjJoRsx-cJ-110" value="" style="shape=module;jettyWidth=8;jettyHeight=4;" vertex="1" parent="aNObFJ_koJKjJoRsx-cJ-109">
          <mxGeometry x="1" width="20" height="20" relative="1" as="geometry">
            <mxPoint x="-27" y="7" as="offset" />
          </mxGeometry>
        </mxCell>
        <mxCell id="aNObFJ_koJKjJoRsx-cJ-121" style="edgeStyle=none;rounded=0;orthogonalLoop=1;jettySize=auto;html=1;entryX=1;entryY=0.5;entryDx=0;entryDy=0;fontSize=14;endArrow=none;endFill=0;exitX=0;exitY=0.5;exitDx=0;exitDy=0;" edge="1" parent="1" source="aNObFJ_koJKjJoRsx-cJ-115" target="aNObFJ_koJKjJoRsx-cJ-61">
          <mxGeometry relative="1" as="geometry" />
        </mxCell>
        <mxCell id="aNObFJ_koJKjJoRsx-cJ-122" style="edgeStyle=none;rounded=0;orthogonalLoop=1;jettySize=auto;html=1;entryX=1;entryY=0.5;entryDx=0;entryDy=0;fontSize=14;endArrow=none;endFill=0;exitX=0;exitY=0.5;exitDx=0;exitDy=0;" edge="1" parent="1" source="aNObFJ_koJKjJoRsx-cJ-115" target="aNObFJ_koJKjJoRsx-cJ-62">
          <mxGeometry relative="1" as="geometry" />
        </mxCell>
        <mxCell id="aNObFJ_koJKjJoRsx-cJ-123" style="edgeStyle=none;rounded=0;orthogonalLoop=1;jettySize=auto;html=1;entryX=0;entryY=0.5;entryDx=0;entryDy=0;fontSize=14;endArrow=open;endFill=0;dashed=1;" edge="1" parent="1" source="aNObFJ_koJKjJoRsx-cJ-115" target="aNObFJ_koJKjJoRsx-cJ-117">
          <mxGeometry relative="1" as="geometry" />
        </mxCell>
        <mxCell id="aNObFJ_koJKjJoRsx-cJ-148" style="edgeStyle=none;rounded=0;orthogonalLoop=1;jettySize=auto;html=1;fontSize=14;endArrow=none;endFill=0;exitX=1;exitY=0.25;exitDx=0;exitDy=0;" edge="1" parent="1" source="aNObFJ_koJKjJoRsx-cJ-115">
          <mxGeometry relative="1" as="geometry">
            <mxPoint x="690" y="230" as="targetPoint" />
            <Array as="points">
              <mxPoint x="570" y="614" />
              <mxPoint x="570" y="520" />
              <mxPoint x="800" y="520" />
              <mxPoint x="800" y="230" />
              <mxPoint x="690" y="230" />
            </Array>
          </mxGeometry>
        </mxCell>
        <mxCell id="aNObFJ_koJKjJoRsx-cJ-115" value="&lt;b&gt;Megjegyzés&lt;br&gt;adatkezelő&lt;/b&gt;" style="html=1;dropTarget=0;" vertex="1" parent="1">
          <mxGeometry x="390" y="600" width="160" height="55" as="geometry" />
        </mxCell>
        <mxCell id="aNObFJ_koJKjJoRsx-cJ-116" value="" style="shape=module;jettyWidth=8;jettyHeight=4;" vertex="1" parent="aNObFJ_koJKjJoRsx-cJ-115">
          <mxGeometry x="1" width="20" height="20" relative="1" as="geometry">
            <mxPoint x="-27" y="7" as="offset" />
          </mxGeometry>
        </mxCell>
        <mxCell id="aNObFJ_koJKjJoRsx-cJ-117" value="&lt;b&gt;Megjegyzés&lt;br&gt;adatbázis&lt;/b&gt;" style="html=1;dropTarget=0;" vertex="1" parent="1">
          <mxGeometry x="700" y="600" width="160" height="55" as="geometry" />
        </mxCell>
        <mxCell id="aNObFJ_koJKjJoRsx-cJ-118" value="" style="shape=module;jettyWidth=8;jettyHeight=4;" vertex="1" parent="aNObFJ_koJKjJoRsx-cJ-117">
          <mxGeometry x="1" width="20" height="20" relative="1" as="geometry">
            <mxPoint x="-27" y="7" as="offset" />
          </mxGeometry>
        </mxCell>
        <mxCell id="aNObFJ_koJKjJoRsx-cJ-138" value="" style="rounded=0;orthogonalLoop=1;jettySize=auto;html=1;endArrow=halfCircle;endFill=0;endSize=6;strokeWidth=1;sketch=0;" edge="1" parent="1">
          <mxGeometry relative="1" as="geometry">
            <mxPoint x="501" y="230" as="sourcePoint" />
            <mxPoint x="500.76" y="175.44" as="targetPoint" />
            <Array as="points">
              <mxPoint x="500.76" y="175.44" />
            </Array>
          </mxGeometry>
        </mxCell>
        <mxCell id="aNObFJ_koJKjJoRsx-cJ-139" value="" style="rounded=0;orthogonalLoop=1;jettySize=auto;html=1;endArrow=none;endFill=0;sketch=0;sourcePerimeterSpacing=0;targetPerimeterSpacing=0;exitX=0.222;exitY=0.992;exitDx=0;exitDy=0;exitPerimeter=0;" edge="1" parent="1">
          <mxGeometry relative="1" as="geometry">
            <mxPoint x="501.24999999999955" y="89.99999999999994" as="sourcePoint" />
            <mxPoint x="500.7579325164734" y="170.4400795512126" as="targetPoint" />
          </mxGeometry>
        </mxCell>
        <mxCell id="aNObFJ_koJKjJoRsx-cJ-140" value="" style="ellipse;whiteSpace=wrap;html=1;align=center;aspect=fixed;resizable=0;points=[];outlineConnect=0;sketch=0;" vertex="1" parent="1">
          <mxGeometry x="496" y="170" width="10" height="10" as="geometry" />
        </mxCell>
        <mxCell id="aNObFJ_koJKjJoRsx-cJ-143" value="" style="rounded=0;orthogonalLoop=1;jettySize=auto;html=1;endArrow=none;endFill=0;sketch=0;sourcePerimeterSpacing=0;targetPerimeterSpacing=0;fontSize=14;exitX=0;exitY=0.5;exitDx=0;exitDy=0;" edge="1" target="aNObFJ_koJKjJoRsx-cJ-145" parent="1" source="aNObFJ_koJKjJoRsx-cJ-84">
          <mxGeometry relative="1" as="geometry">
            <mxPoint x="610" y="295" as="sourcePoint" />
          </mxGeometry>
        </mxCell>
        <mxCell id="aNObFJ_koJKjJoRsx-cJ-144" value="" style="rounded=0;orthogonalLoop=1;jettySize=auto;html=1;endArrow=halfCircle;endFill=0;entryX=0.5;entryY=0.5;endSize=6;strokeWidth=1;sketch=0;fontSize=14;" edge="1" target="aNObFJ_koJKjJoRsx-cJ-145" parent="1">
          <mxGeometry relative="1" as="geometry">
            <mxPoint x="430" y="230" as="sourcePoint" />
            <Array as="points">
              <mxPoint x="534" y="230" />
              <mxPoint x="590" y="230" />
              <mxPoint x="650" y="230" />
              <mxPoint x="690" y="230" />
              <mxPoint x="690" y="180" />
            </Array>
          </mxGeometry>
        </mxCell>
        <mxCell id="aNObFJ_koJKjJoRsx-cJ-145" value="" style="ellipse;whiteSpace=wrap;html=1;align=center;aspect=fixed;resizable=0;points=[];outlineConnect=0;sketch=0;fontSize=14;" vertex="1" parent="1">
          <mxGeometry x="710" y="175" width="10" height="10" as="geometry" />
        </mxCell>
        <mxCell id="aNObFJ_koJKjJoRsx-cJ-149" value="Naplózás" style="text;html=1;align=center;verticalAlign=middle;resizable=0;points=[];autosize=1;strokeColor=none;fillColor=none;fontSize=14;" vertex="1" parent="1">
          <mxGeometry x="720" y="180" width="70" height="20" as="geometry" />
        </mxCell>
        <mxCell id="aNObFJ_koJKjJoRsx-cJ-150" value="Szerepkör&lt;br&gt;lekérése" style="text;html=1;align=center;verticalAlign=middle;resizable=0;points=[];autosize=1;strokeColor=none;fillColor=none;fontSize=14;" vertex="1" parent="1">
          <mxGeometry x="345" y="155" width="80" height="40" as="geometry" />
        </mxCell>
        <mxCell id="aNObFJ_koJKjJoRsx-cJ-151" value="Azonosító&lt;br&gt;lekérése" style="text;html=1;align=center;verticalAlign=middle;resizable=0;points=[];autosize=1;strokeColor=none;fillColor=none;fontSize=14;" vertex="1" parent="1">
          <mxGeometry x="506" y="152.5" width="80" height="40" as="geometry" />
        </mxCell>
        <mxCell id="aNObFJ_koJKjJoRsx-cJ-155" value="" style="rounded=0;orthogonalLoop=1;jettySize=auto;html=1;endArrow=none;endFill=0;sketch=0;sourcePerimeterSpacing=0;targetPerimeterSpacing=0;fontSize=14;exitX=0.219;exitY=1.012;exitDx=0;exitDy=0;exitPerimeter=0;" edge="1" parent="1">
          <mxGeometry relative="1" as="geometry">
            <mxPoint x="405.03999999999996" y="395.6600000000001" as="sourcePoint" />
            <mxPoint x="405" y="495" as="targetPoint" />
          </mxGeometry>
        </mxCell>
        <mxCell id="aNObFJ_koJKjJoRsx-cJ-156" value="" style="rounded=0;orthogonalLoop=1;jettySize=auto;html=1;endArrow=halfCircle;endFill=0;endSize=6;strokeWidth=1;sketch=0;fontSize=14;exitX=0.213;exitY=-0.018;exitDx=0;exitDy=0;exitPerimeter=0;" edge="1" parent="1">
          <mxGeometry relative="1" as="geometry">
            <mxPoint x="404.0799999999999" y="599.01" as="sourcePoint" />
            <mxPoint x="405" y="500" as="targetPoint" />
          </mxGeometry>
        </mxCell>
        <mxCell id="aNObFJ_koJKjJoRsx-cJ-157" value="" style="ellipse;whiteSpace=wrap;html=1;align=center;aspect=fixed;resizable=0;points=[];outlineConnect=0;sketch=0;fontSize=14;" vertex="1" parent="1">
          <mxGeometry x="400" y="495" width="10" height="10" as="geometry" />
        </mxCell>
        <mxCell id="aNObFJ_koJKjJoRsx-cJ-158" value="CAFF&lt;br&gt;azonosító&lt;br&gt;lekérése" style="text;html=1;align=center;verticalAlign=middle;resizable=0;points=[];autosize=1;strokeColor=none;fillColor=none;fontSize=14;" vertex="1" parent="1">
          <mxGeometry x="320" y="470" width="80" height="60" as="geometry" />
        </mxCell>
        <mxCell id="aNObFJ_koJKjJoRsx-cJ-164" value="" style="rounded=0;orthogonalLoop=1;jettySize=auto;html=1;endArrow=none;endFill=0;sketch=0;sourcePerimeterSpacing=0;targetPerimeterSpacing=0;fontSize=14;" edge="1" parent="1">
          <mxGeometry relative="1" as="geometry">
            <mxPoint x="433" y="600" as="sourcePoint" />
            <mxPoint x="433" y="510" as="targetPoint" />
          </mxGeometry>
        </mxCell>
        <mxCell id="aNObFJ_koJKjJoRsx-cJ-165" value="" style="rounded=0;orthogonalLoop=1;jettySize=auto;html=1;endArrow=halfCircle;endFill=0;entryX=0.5;entryY=0.5;endSize=6;strokeWidth=1;sketch=0;fontSize=14;exitX=0.397;exitY=0.99;exitDx=0;exitDy=0;exitPerimeter=0;" edge="1" parent="1">
          <mxGeometry relative="1" as="geometry">
            <mxPoint x="431.52" y="394.45000000000005" as="sourcePoint" />
            <mxPoint x="433" y="505" as="targetPoint" />
          </mxGeometry>
        </mxCell>
        <mxCell id="aNObFJ_koJKjJoRsx-cJ-166" value="" style="ellipse;whiteSpace=wrap;html=1;align=center;aspect=fixed;resizable=0;points=[];outlineConnect=0;sketch=0;fontSize=14;" vertex="1" parent="1">
          <mxGeometry x="428" y="500" width="10" height="10" as="geometry" />
        </mxCell>
        <mxCell id="aNObFJ_koJKjJoRsx-cJ-167" value="Megjegyzések&lt;br&gt;lekérése" style="text;html=1;align=center;verticalAlign=middle;resizable=0;points=[];autosize=1;strokeColor=none;fillColor=none;fontSize=14;" vertex="1" parent="1">
          <mxGeometry x="428" y="470" width="110" height="40" as="geometry" />
        </mxCell>
        <mxCell id="aNObFJ_koJKjJoRsx-cJ-183" value="&lt;b&gt;Rendszeridő&lt;/b&gt;" style="html=1;dropTarget=0;" vertex="1" parent="1">
          <mxGeometry x="1020" y="152.5" width="160" height="55" as="geometry" />
        </mxCell>
        <mxCell id="aNObFJ_koJKjJoRsx-cJ-184" value="" style="shape=module;jettyWidth=8;jettyHeight=4;" vertex="1" parent="aNObFJ_koJKjJoRsx-cJ-183">
          <mxGeometry x="1" width="20" height="20" relative="1" as="geometry">
            <mxPoint x="-27" y="7" as="offset" />
          </mxGeometry>
        </mxCell>
        <mxCell id="aNObFJ_koJKjJoRsx-cJ-190" value="CAFF tulajdonos&lt;br&gt;lekérése" style="text;html=1;align=center;verticalAlign=middle;resizable=0;points=[];autosize=1;strokeColor=none;fillColor=none;fontSize=14;" vertex="1" parent="1">
          <mxGeometry x="538" y="470" width="120" height="40" as="geometry" />
        </mxCell>
        <mxCell id="aNObFJ_koJKjJoRsx-cJ-191" value="" style="rounded=0;orthogonalLoop=1;jettySize=auto;html=1;endArrow=none;endFill=0;sketch=0;sourcePerimeterSpacing=0;targetPerimeterSpacing=0;fontSize=14;exitX=0.219;exitY=1.012;exitDx=0;exitDy=0;exitPerimeter=0;" edge="1" parent="1">
          <mxGeometry relative="1" as="geometry">
            <mxPoint x="538.9599999999999" y="395.00000000000006" as="sourcePoint" />
            <mxPoint x="538.92" y="494.34" as="targetPoint" />
          </mxGeometry>
        </mxCell>
        <mxCell id="aNObFJ_koJKjJoRsx-cJ-192" value="" style="rounded=0;orthogonalLoop=1;jettySize=auto;html=1;endArrow=halfCircle;endFill=0;endSize=6;strokeWidth=1;sketch=0;fontSize=14;exitX=0.213;exitY=-0.018;exitDx=0;exitDy=0;exitPerimeter=0;" edge="1" parent="1">
          <mxGeometry relative="1" as="geometry">
            <mxPoint x="537.9999999999999" y="599.35" as="sourcePoint" />
            <mxPoint x="538.92" y="500.34" as="targetPoint" />
          </mxGeometry>
        </mxCell>
        <mxCell id="aNObFJ_koJKjJoRsx-cJ-194" value="" style="ellipse;whiteSpace=wrap;html=1;align=center;aspect=fixed;resizable=0;points=[];outlineConnect=0;sketch=0;fontSize=14;" vertex="1" parent="1">
          <mxGeometry x="534" y="494" width="10" height="10" as="geometry" />
        </mxCell>
      </root>
    </mxGraphModel>
  </diagram>
</mxfile>
